<svg width="146" height="39" viewBox="0 0 146 39" fill="none" xmlns="http://www.w3.org/2000/svg">
<path d="M0 19.5C0 12.8726 5.37083 7.5 11.9961 7.5C13.0334 7.5 14.0399 7.6317 15 7.87929C12.94 8.41015 11.0396 9.48445 9.5098 11.0147C7.2601 13.2651 5.99624 16.3174 5.99624 19.5H0Z" fill="#01B4AF"/>
<path d="M32 19.5C32 16.3174 30.7884 13.2651 28.6317 11.0147C26.475 8.76428 23.55 7.5 20.5 7.5C17.45 7.5 14.525 8.76428 12.3683 11.0147C10.2116 13.2651 9 16.3174 9 19.5H12.5938C13.7847 19.5 14.7134 18.4586 15.1496 17.3023C15.436 16.5431 15.8705 15.8455 16.4341 15.2573C17.5124 14.1321 18.975 13.5 20.5 13.5C22.025 13.5 23.4875 14.1321 24.5659 15.2573C25.6442 16.3826 26.25 17.9087 26.25 19.5H32Z" fill="url(#paint0_linear_7751_32576)"/>
<path d="M0 19.5C-2.16047e-07 21.0759 0.297456 22.6363 0.875382 24.0922C1.45331 25.5482 2.30039 26.871 3.36827 27.9853C4.43614 29.0996 5.70389 29.9835 7.09913 30.5866C8.49436 31.1896 9.98977 31.5 11.5 31.5C13.0102 31.5 14.5056 31.1896 15.9008 30.5866C17.2961 29.9835 18.5638 29.0996 19.6317 27.9853C20.6996 26.871 21.5466 25.5482 22.1246 24.0922C22.7025 22.6363 23 21.0759 23 19.5H19.4062C18.2153 19.5 17.2866 20.5414 16.8504 21.6976C16.838 21.7306 16.8253 21.7634 16.8123 21.7962C16.5233 22.5241 16.0998 23.1855 15.5658 23.7427C15.0319 24.2998 14.398 24.7418 13.7004 25.0433C13.0028 25.3449 12.2551 25.5 11.5 25.5C10.7449 25.5 9.99718 25.3449 9.29959 25.0433C8.60193 24.7418 7.96809 24.2998 7.43411 23.7427C6.90019 23.1855 6.47665 22.5241 6.18769 21.7962C5.89872 21.0682 5.74999 20.2879 5.74999 19.5H0Z" fill="url(#paint1_linear_7751_32576)"/>
<path d="M25.0897 24.0922C25.6925 22.6363 26.0029 21.0758 26.0029 19.5H32C32 26.1274 26.6294 31.5 20.0044 31.5C18.9669 31.5 17.9601 31.3683 17 31.1206C17.5432 30.9806 18.0772 30.8022 18.5977 30.5866C20.0531 29.9835 21.3755 29.0996 22.4894 27.9853C23.6033 26.871 24.4869 25.5481 25.0897 24.0922Z" fill="#FBCF8E"/>
<path d="M41.2912 26V12.9091H43.6626V18.451H49.7287V12.9091H52.1065V26H49.7287V20.4389H43.6626V26H41.2912ZM59.11 26.1918C58.1257 26.1918 57.2755 25.9872 56.5596 25.5781C55.848 25.1648 55.3004 24.581 54.9169 23.8267C54.5333 23.0682 54.3416 22.1754 54.3416 21.1484C54.3416 20.1385 54.5333 19.2521 54.9169 18.4893C55.3046 17.7223 55.8458 17.1257 56.5404 16.6996C57.235 16.2692 58.0511 16.054 58.9886 16.054C59.5937 16.054 60.1647 16.152 60.7017 16.348C61.2429 16.5398 61.7201 16.8381 62.1335 17.2429C62.5511 17.6477 62.8792 18.1634 63.1179 18.7898C63.3565 19.4119 63.4758 20.1534 63.4758 21.0142V21.7237H55.4282V20.1641H61.2578C61.2535 19.7209 61.1576 19.3267 60.9701 18.9815C60.7826 18.6321 60.5206 18.3572 60.1839 18.157C59.8515 17.9567 59.4637 17.8565 59.0206 17.8565C58.5475 17.8565 58.1321 17.9716 57.7741 18.2017C57.4162 18.4276 57.137 18.7259 56.9367 19.0966C56.7407 19.4631 56.6406 19.8658 56.6363 20.3047V21.6662C56.6363 22.2372 56.7407 22.7273 56.9495 23.1364C57.1583 23.5412 57.4502 23.8523 57.8252 24.0696C58.2002 24.2827 58.6392 24.3892 59.142 24.3892C59.4787 24.3892 59.7833 24.3423 60.0561 24.2486C60.3288 24.1506 60.5653 24.0078 60.7656 23.8203C60.9659 23.6328 61.1171 23.4006 61.2194 23.1236L63.3799 23.3665C63.2436 23.9375 62.9836 24.4361 62.6001 24.8622C62.2208 25.2841 61.735 25.6122 61.1427 25.8466C60.5504 26.0767 59.8728 26.1918 59.11 26.1918ZM68.4387 26.1982C67.8165 26.1982 67.2561 26.0874 66.7576 25.8658C66.2632 25.6399 65.8712 25.3075 65.5814 24.8686C65.2959 24.4297 65.1531 23.8885 65.1531 23.245C65.1531 22.6911 65.2554 22.233 65.46 21.8707C65.6645 21.5085 65.9436 21.2188 66.2973 21.0014C66.651 20.7841 67.0495 20.62 67.4926 20.5092C67.9401 20.3942 68.4024 20.3111 68.8797 20.2599C69.455 20.2003 69.9216 20.147 70.2796 20.1001C70.6375 20.049 70.8975 19.9723 71.0594 19.87C71.2256 19.7635 71.3087 19.5994 71.3087 19.3778V19.3395C71.3087 18.858 71.1659 18.4851 70.8804 18.2209C70.5949 17.9567 70.1837 17.8246 69.6468 17.8246C69.08 17.8246 68.6304 17.9482 68.298 18.1953C67.9699 18.4425 67.7483 18.7344 67.6333 19.071L65.4727 18.7642C65.6432 18.1676 65.9245 17.669 66.3165 17.2685C66.7085 16.8636 67.1879 16.5611 67.7547 16.3608C68.3215 16.1562 68.9479 16.054 69.634 16.054C70.107 16.054 70.5779 16.1094 71.0466 16.2202C71.5154 16.331 71.9436 16.5142 72.3314 16.7699C72.7192 17.0213 73.0303 17.3643 73.2647 17.799C73.5033 18.2337 73.6226 18.777 73.6226 19.429V26H71.3982V24.6513H71.3215C71.1808 24.924 70.9827 25.1797 70.727 25.4183C70.4756 25.6527 70.1581 25.8423 69.7746 25.9872C69.3953 26.1278 68.95 26.1982 68.4387 26.1982ZM69.0395 24.4979C69.504 24.4979 69.9067 24.4062 70.2476 24.223C70.5885 24.0355 70.8506 23.7884 71.0338 23.4815C71.2213 23.1747 71.3151 22.8402 71.3151 22.478V21.321C71.2426 21.3807 71.1191 21.4361 70.9443 21.4872C70.7739 21.5384 70.5821 21.5831 70.3691 21.6214C70.156 21.6598 69.9451 21.6939 69.7362 21.7237C69.5274 21.7536 69.3463 21.7791 69.1929 21.8004C68.8477 21.8473 68.5388 21.924 68.2661 22.0305C67.9933 22.1371 67.7781 22.2862 67.6205 22.478C67.4628 22.6655 67.384 22.9084 67.384 23.2067C67.384 23.6328 67.5395 23.9545 67.8506 24.1719C68.1617 24.3892 68.558 24.4979 69.0395 24.4979ZM78.4432 12.9091V26H76.1293V12.9091H78.4432ZM85.9054 16.1818V17.9716H80.2612V16.1818H85.9054ZM81.6547 13.8295H83.9686V23.0469C83.9686 23.358 84.0155 23.5966 84.1092 23.7628C84.2072 23.9247 84.3351 24.0355 84.4927 24.0952C84.6504 24.1548 84.8251 24.1847 85.0169 24.1847C85.1618 24.1847 85.2939 24.174 85.4132 24.1527C85.5368 24.1314 85.6305 24.1122 85.6944 24.0952L86.0843 25.9041C85.9608 25.9467 85.7839 25.9936 85.5538 26.0447C85.328 26.0959 85.051 26.1257 84.7228 26.1342C84.1433 26.1513 83.6213 26.0639 83.1568 25.8722C82.6923 25.6761 82.3237 25.3736 82.051 24.9645C81.7825 24.5554 81.6504 24.044 81.6547 23.4304V13.8295ZM90.5454 20.2472V26H88.2315V12.9091H90.4943V17.8501H90.6093C90.8395 17.2962 91.1953 16.8594 91.6768 16.5398C92.1626 16.2159 92.7805 16.054 93.5305 16.054C94.2123 16.054 94.8068 16.1967 95.3139 16.4822C95.821 16.7678 96.213 17.1854 96.49 17.7351C96.7713 18.2848 96.9119 18.956 96.9119 19.7486V26H94.598V20.1065C94.598 19.446 94.4275 18.9325 94.0866 18.5661C93.75 18.1953 93.277 18.0099 92.6676 18.0099C92.2585 18.0099 91.892 18.0994 91.5681 18.2784C91.2485 18.4531 90.9971 18.7067 90.8139 19.0391C90.6349 19.3714 90.5454 19.7741 90.5454 20.2472Z" fill="white"/>
<path d="M104.198 26V12.9091H112.712V14.897H106.569V18.451H112.271V20.4389H106.569V24.0121H112.763V26H104.198ZM115.311 26V12.9091H117.683V18.451H123.749V12.9091H126.127V26H123.749V20.4389H117.683V26H115.311ZM128.886 26V12.9091H133.795C134.801 12.9091 135.644 13.0838 136.326 13.4332C137.012 13.7827 137.53 14.2727 137.879 14.9034C138.233 15.5298 138.41 16.2607 138.41 17.0959C138.41 17.9354 138.231 18.6641 137.873 19.282C137.519 19.8956 136.997 20.3707 136.307 20.7074C135.617 21.0398 134.769 21.206 133.763 21.206H130.266V19.2372H133.443C134.031 19.2372 134.513 19.1562 134.888 18.9943C135.263 18.8281 135.54 18.5874 135.719 18.272C135.902 17.9524 135.994 17.5604 135.994 17.0959C135.994 16.6314 135.902 16.2351 135.719 15.907C135.536 15.5746 135.257 15.3232 134.882 15.1527C134.507 14.978 134.023 14.8906 133.431 14.8906H131.257V26H128.886ZM135.649 20.0682L138.889 26H136.243L133.06 20.0682H135.649Z" fill="#00C6C1"/>
<defs>
<linearGradient id="paint0_linear_7751_32576" x1="32" y1="13.5" x2="9" y2="13.5" gradientUnits="userSpaceOnUse">
<stop stop-color="#73E5E2"/>
<stop offset="1" stop-color="#394F87"/>
</linearGradient>
<linearGradient id="paint1_linear_7751_32576" x1="7.5402e-07" y1="25.5" x2="23" y2="25.5" gradientUnits="userSpaceOnUse">
<stop stop-color="#FBDC8E"/>
<stop offset="1" stop-color="#FB958E"/>
</linearGradient>
</defs>
</svg>
